<svg xmlns="http://www.w3.org/2000/svg" viewBox="0 0 129.46 114.78"><defs><style>.cls-1{fill:#5a5c5c;stroke:#5a5c5c;stroke-width:0.01px;}.cls-1,.cls-2{stroke-miterlimit:10;}.cls-2{fill:none;stroke:#5b5c5c;stroke-linecap:round;stroke-width:2px;}</style></defs><title>余白文化株式会社</title><g id="レイヤー_2" data-name="レイヤー 2"><g id="レイヤー_1-2" data-name="レイヤー 1"><path class="cls-1" d="M11.18,97.87c.14.07.15.17,0,.27a2.36,2.36,0,0,0-.33.41.18.18,0,0,1-.26.08,15.15,15.15,0,0,1-5-4.23A11.65,11.65,0,0,1,.29,99,.19.19,0,0,1,0,99c0-.08,0-.15.1-.23a12.3,12.3,0,0,0,5.05-5.15.21.21,0,0,1,.26-.12c.63.12.94.25.94.39s-.17.17-.52.24A14.56,14.56,0,0,0,11.18,97.87Zm-10.8,6a9,9,0,0,0,2.34-3.06.21.21,0,0,1,.28-.09c.59.25.89.47.89.63s-.19.18-.58.18a8.86,8.86,0,0,1-2.72,2.63.19.19,0,0,1-.26,0C.25,104,.28,103.93.38,103.84Zm5.68-6v1.93H9.24l.52-.67c.09-.11.17-.12.27,0s.38.38.61.63a.22.22,0,0,1,0,.27.24.24,0,0,1-.22.11H6.06v3.75c0,.59-.37.9-1.1.94-.12,0-.19,0-.22-.18a.59.59,0,0,0-.36-.35,8.53,8.53,0,0,0-1-.21c-.12,0-.18-.09-.18-.22s.08-.15.2-.13c.64.06,1.13.08,1.5.08s.43-.11.43-.32v-3.36H1.1a.22.22,0,0,1-.23-.16c0-.1,0-.16.18-.16H5.33V97.83H3.24A.22.22,0,0,1,3,97.67c0-.1,0-.16.19-.16H6.9L7.32,97a.17.17,0,0,1,.27,0,6.43,6.43,0,0,1,.52.47.21.21,0,0,1,0,.28c0,.06-.1.08-.2.08Zm1.32,2.85A8.9,8.9,0,0,1,10,102.52a1.49,1.49,0,0,1,.49.92c0,.31-.14.46-.41.46s-.32-.16-.51-.48A8.77,8.77,0,0,0,7.21,101c-.11-.08-.13-.16-.07-.24S7.27,100.63,7.38,100.68Z"/><path class="cls-1" d="M19.07,96.2h1.65a13.13,13.13,0,0,0,.76-2.34.17.17,0,0,1,.24-.15q1.05.23,1.05.45c0,.1-.16.19-.51.26a12.24,12.24,0,0,1-1.11,1.78h4.38l.43-.52c.07-.1.17-.11.28,0,.45.36.67.61.67.74a.17.17,0,0,1-.1.14l-.36.21v7.69c0,.14-.06.21-.19.21h-.39a.18.18,0,0,1-.2-.21v-.71H18.93v.89a.18.18,0,0,1-.2.2h-.39a.18.18,0,0,1-.2-.2V96c0-.15.09-.21.23-.15s.36.19.58.28Zm-.14.31v3.15h6.74V96.51Zm6.74,6.9V100H18.93v3.44Z"/><path class="cls-1" d="M34.44,96.46a.25.25,0,0,1-.24-.15c0-.1,0-.16.19-.16H39V93.87a.17.17,0,0,1,.21-.19c.72,0,1.09.15,1.09.32s-.19.21-.56.36v1.79h3.44l.59-.77c.09-.11.18-.13.28,0a7.07,7.07,0,0,1,.7.75.18.18,0,0,1,0,.26.23.23,0,0,1-.22.1H42.39a13,13,0,0,1-2.31,4.71,12.94,12.94,0,0,0,4.65,2.57c.15.05.17.15.06.26a3.37,3.37,0,0,0-.34.43.19.19,0,0,1-.26.09,13.62,13.62,0,0,1-4.52-2.82,11.9,11.9,0,0,1-5.44,3.06.21.21,0,0,1-.25-.1c-.07-.1,0-.18.12-.22a12.37,12.37,0,0,0,5-3.29,14.59,14.59,0,0,1-2.63-4.69Zm2.54,0a14.3,14.3,0,0,0,2.6,4.21,11.82,11.82,0,0,0,1.94-4.21Z"/><path class="cls-1" d="M54.11,97.57c0,.11-.17.24-.51.34v6.71a.18.18,0,0,1-.2.2h-.34a.18.18,0,0,1-.2-.2V98.21A16.21,16.21,0,0,1,51,100.7a.18.18,0,0,1-.27,0c-.08-.07-.08-.14,0-.24A21.65,21.65,0,0,0,54,93.77a.19.19,0,0,1,.25-.13c.67.19,1,.37,1,.53s-.18.2-.58.27a24.71,24.71,0,0,1-1.23,2.8C53.87,97.31,54.11,97.42,54.11,97.57Zm3,1.38.15-.07a10.16,10.16,0,0,0,3-2.68.17.17,0,0,1,.27,0c.53.38.78.66.78.82s-.08.14-.26.14a3.47,3.47,0,0,1-.39-.05,17.32,17.32,0,0,1-3.6,2.33v3.89q0,.33.21.42a7,7,0,0,0,1.48.09,7.74,7.74,0,0,0,1.55-.09c.35-.12.59-.9.67-2.35,0-.15.11-.21.24-.15a.21.21,0,0,1,.12.21,8.54,8.54,0,0,0,.14,1.92.43.43,0,0,0,.21.21c.11,0,.19.1.16.21a.68.68,0,0,1-.53.58,13.64,13.64,0,0,1-2.64.14,4.43,4.43,0,0,1-2.15-.28,1,1,0,0,1-.22-.76V93.89a.17.17,0,0,1,.22-.18c.72,0,1.08.15,1.08.32s-.18.23-.54.37Z"/><path class="cls-1" d="M74.66,100.38a12.14,12.14,0,0,1-3.35,3.56.19.19,0,0,1-.27,0c-.06-.07,0-.16,0-.25a12.44,12.44,0,0,0,3.24-4.25h-2.8a1.2,1.2,0,0,1,.19.61c0,.32-.12.48-.39.48s-.31-.15-.4-.44a4.63,4.63,0,0,0-1-1.76v6.34c0,.13-.07.19-.2.19h-.31c-.13,0-.2-.06-.2-.19V98.68a15.92,15.92,0,0,1-1.63,3.54c-.07.11-.16.12-.28.06s-.08-.13,0-.24a21,21,0,0,0,1.9-5.41H67.67a.22.22,0,0,1-.23-.17c0-.1,0-.15.19-.15h1.63V93.72a.17.17,0,0,1,.21-.19c.67,0,1,.15,1,.33s-.17.2-.49.3v2.15h.68l.47-.67a.16.16,0,0,1,.28,0c.2.25.37.45.5.63a.24.24,0,0,1,0,.27.21.21,0,0,1-.2.1H70v1.25a5.43,5.43,0,0,1,1.35,1.2h3.34V96.56H73.1l-.07.13a17.5,17.5,0,0,1-1,1.93.17.17,0,0,1-.26,0c-.09,0-.11-.14,0-.26a13.42,13.42,0,0,0,1.19-4,.16.16,0,0,1,.23-.15c.64.15,1,.29,1,.44s-.17.19-.49.26a12.88,12.88,0,0,1-.38,1.29h1.45V93.69a.18.18,0,0,1,.21-.19c.69,0,1,.13,1,.31s-.17.22-.52.35v2.09h1.42l.5-.69a.17.17,0,0,1,.29,0c.2.23.39.45.56.67a.23.23,0,0,1,0,.28.21.21,0,0,1-.2.08H75.39v2.52h1.93l.52-.7a.17.17,0,0,1,.29,0,6.23,6.23,0,0,1,.57.68.23.23,0,0,1,0,.26.22.22,0,0,1-.21.11h-3a11.15,11.15,0,0,0,3.4,3.58c.12.08.12.18,0,.27a2.4,2.4,0,0,0-.37.4.17.17,0,0,1-.27,0,11.94,11.94,0,0,1-2.92-3.87v4.82a.17.17,0,0,1-.19.19h-.34c-.14,0-.2-.06-.2-.19Z"/><path class="cls-1" d="M91.34,96.8a11.83,11.83,0,0,0,1.79,5.06c.53.78.9,1.17,1.12,1.17s.39-.7.58-2.11c0-.15.11-.22.24-.15a.21.21,0,0,1,.1.22,16.78,16.78,0,0,0-.12,1.69c0,.58.1,1,.32,1.13s.14.16.1.27a.57.57,0,0,1-.56.39c-.4,0-1-.38-1.64-1.13a12.14,12.14,0,0,1-2.7-6.47H84.83a.23.23,0,0,1-.23-.16c0-.1,0-.16.19-.16h5.74c0-.1,0-.23,0-.36a16.52,16.52,0,0,1-.08-1.69v-.66c0-.12.08-.18.21-.17.7,0,1,.16,1,.31s-.17.22-.48.35v.27a17.4,17.4,0,0,0,.11,1.89h2.58l.48-.71a.17.17,0,0,1,.28,0,5,5,0,0,1,.58.63.24.24,0,0,1,0,.28.21.21,0,0,1-.21.12Zm-3.22,2.75v3c.94-.19,1.8-.4,2.58-.61a.16.16,0,0,1,.22.15c0,.08,0,.14-.13.19a49,49,0,0,1-5.09,1.53c-.06.34-.14.5-.25.5s-.33-.34-.52-1c-.05-.14,0-.22.15-.25.77-.1,1.54-.23,2.31-.36V99.55H85.32a.22.22,0,0,1-.22-.15c0-.11,0-.17.18-.17h3.77l.51-.72a.17.17,0,0,1,.28,0,5.44,5.44,0,0,1,.59.67.2.2,0,0,1,0,.26.24.24,0,0,1-.23.13Zm4.28-5.64c1,.42,1.49.92,1.49,1.47,0,.31-.13.47-.44.47s-.37-.14-.44-.42a2.43,2.43,0,0,0-.79-1.25c-.1-.08-.13-.16-.07-.23S92.27,93.86,92.4,93.91Z"/><path class="cls-1" d="M107.19,94.2a12.9,12.9,0,0,0,5.21,3.74c.14.06.15.16,0,.27a2.46,2.46,0,0,0-.34.44.2.2,0,0,1-.28.08,13.09,13.09,0,0,1-4.88-4.31.55.55,0,0,0-.09.14,11.82,11.82,0,0,1-5.24,4.79.19.19,0,0,1-.26-.08c-.07-.08,0-.15.09-.21a12.19,12.19,0,0,0,5-5.47.2.2,0,0,1,.25-.12c.66.12,1,.26,1,.41s-.18.18-.54.22Zm-1.71,6.59a1.2,1.2,0,0,0,0-.14h0v0h-3.3a.29.29,0,0,1-.24-.14c0-.1,0-.17.18-.17h8.16l.55-.67a.18.18,0,0,1,.28,0h0a5.74,5.74,0,0,1,.66.64.21.21,0,0,1,0,.28.25.25,0,0,1-.21.1h-5.14a30.25,30.25,0,0,1-1.51,2.7l-.1.13.71,0c1,0,2.35-.14,3.94-.24l.39,0a8.57,8.57,0,0,0-1.59-1.33.19.19,0,0,1,0-.28c0-.06.11-.06.23,0a8.78,8.78,0,0,1,2.68,1.8,1.58,1.58,0,0,1,.52,1c0,.31-.14.48-.43.48a.41.41,0,0,1-.38-.27,5.91,5.91,0,0,0-.69-1l-.27,0c-2.15.3-4.43.53-6.84.74-.08.29-.14.44-.23.44s-.35-.31-.53-1c0-.14.1-.23.34-.24l1.75,0A17.89,17.89,0,0,0,105.48,100.79ZM108.33,98l.47-.57a.17.17,0,0,1,.28,0l.58.53a.23.23,0,0,1,0,.27.22.22,0,0,1-.21.11h-5.27a.23.23,0,0,1-.23-.16c0-.1,0-.16.17-.16Z"/><path class="cls-1" d="M121,98.82a5.62,5.62,0,0,1,1.7.8c.4.3.6.59.6.86s-.13.44-.39.44-.29-.11-.43-.33A4.66,4.66,0,0,0,121,99.18v5.45c0,.13-.08.19-.21.19h-.35a.17.17,0,0,1-.19-.19v-5a17.66,17.66,0,0,1-1.8,1.55.18.18,0,0,1-.27,0c-.08-.09-.05-.16,0-.25a14.19,14.19,0,0,0,3.56-4.68h-3.24a.21.21,0,0,1-.22-.15c0-.1,0-.17.17-.17h1.74V93.71a.18.18,0,0,1,.2-.19q1,0,1,.3c0,.1-.17.21-.51.35v1.71h.81l.36-.45c.07-.11.17-.11.29,0,.4.38.61.63.61.74s0,.09-.11.13l-.37.16A16.22,16.22,0,0,1,121,98.78Zm4.2,4.91V98.31h-2.42a.21.21,0,0,1-.22-.15c0-.1,0-.16.17-.16h2.47V94.21a.18.18,0,0,1,.2-.2c.73,0,1.11.14,1.11.32s-.18.23-.54.37V98h1.6l.49-.66c.09-.11.19-.12.28,0s.39.41.54.6a.24.24,0,0,1,0,.28.23.23,0,0,1-.22.11H126v5.42H128l.55-.75a.17.17,0,0,1,.28,0h0a4,4,0,0,1,.57.68.22.22,0,0,1,0,.26.26.26,0,0,1-.24.14h-7a.23.23,0,0,1-.23-.15c0-.1,0-.16.18-.16Z"/><path class="cls-1" d="M22.79,110.92l-1.12,1.9V114H21v-1.15l-1.14-1.94h.76l.74,1.34.71-1.34Z"/><path class="cls-1" d="M26.76,114.08a1.19,1.19,0,0,1-.9-.33,1.25,1.25,0,0,1-.32-.93,1.29,1.29,0,0,1,.32-.92,1.17,1.17,0,0,1,.9-.34,1.15,1.15,0,0,1,.89.34,1.5,1.5,0,0,1,0,1.85A1.18,1.18,0,0,1,26.76,114.08Zm0-2.08c-.38,0-.56.28-.56.83s.18.81.56.81.55-.27.55-.81S27.13,112,26.76,112Z"/><path class="cls-1" d="M33.27,114h-.64v-1.18c0-.33,0-.54-.11-.62a.45.45,0,0,0-.35-.12,1,1,0,0,0-.5.18V114h-.62v-3.23h.62V112a2.3,2.3,0,0,1,.48-.32.91.91,0,0,1,.37-.08c.5,0,.75.29.75.88Z"/><path class="cls-1" d="M38.51,114h-.62v-.31a1.83,1.83,0,0,1-.47.31,1.21,1.21,0,0,1-.38.06.73.73,0,0,1-.52-.2.68.68,0,0,1-.2-.52.69.69,0,0,1,.3-.61,2.84,2.84,0,0,1,1.27-.26v-.06a.35.35,0,0,0-.15-.32.93.93,0,0,0-.51-.1,2.05,2.05,0,0,0-.69.18h0v-.5a4,4,0,0,1,.86-.11,1.46,1.46,0,0,1,.86.19.72.72,0,0,1,.27.62Zm-.62-.58v-.6a2.14,2.14,0,0,0-.78.16.34.34,0,0,0-.15.3.31.31,0,0,0,.11.28.52.52,0,0,0,.34.08A.7.7,0,0,0,37.89,113.43Z"/><path class="cls-1" d="M44.05,114h-.74l-.67-1-.27.34v.7h-.63v-3.23h.63v2l.9-1.15H44l-.84,1Z"/><path class="cls-1" d="M49.17,114h-.63v-.33a2.06,2.06,0,0,1-.47.31.8.8,0,0,1-.37.08q-.75,0-.75-.87v-1.56h.63v1.18a1.13,1.13,0,0,0,.11.62.46.46,0,0,0,.36.12,1,1,0,0,0,.49-.19v-1.73h.63Z"/><path class="cls-1" d="M53.05,113.84l0,.17h-.59v-3.23h.63V112a2.15,2.15,0,0,1,.45-.3,1,1,0,0,1,.37-.08.75.75,0,0,1,.64.32,1.59,1.59,0,0,1,.23.91,1.43,1.43,0,0,1-.29.92.89.89,0,0,1-.73.35A1.22,1.22,0,0,1,53.05,113.84Zm0-1.62v1.32a1.18,1.18,0,0,0,.39.08c.43,0,.65-.27.65-.81s-.18-.75-.55-.75A.94.94,0,0,0,53.05,112.22Z"/><path class="cls-1" d="M60,114h-.63v-.33a2.31,2.31,0,0,1-.47.31.8.8,0,0,1-.37.08q-.75,0-.75-.87v-1.56h.63v1.18a1.13,1.13,0,0,0,.11.62.45.45,0,0,0,.35.12,1,1,0,0,0,.5-.19v-1.73H60Z"/><path class="cls-1" d="M65.49,114h-.63v-1.18a1.11,1.11,0,0,0-.11-.62.46.46,0,0,0-.36-.12,1,1,0,0,0-.49.18V114h-.63v-2.37h.63V112a2.6,2.6,0,0,1,.47-.32,1,1,0,0,1,.37-.08c.5,0,.75.29.75.88Z"/><path class="cls-1" d="M71,114h-.75l-.67-1-.27.34v.7h-.62v-3.23h.63v2l.89-1.15H71l-.84,1Z"/><path class="cls-1" d="M76,114h-.63v-.31a1.68,1.68,0,0,1-.47.31,1.16,1.16,0,0,1-.38.06.73.73,0,0,1-.52-.2.72.72,0,0,1-.2-.52.69.69,0,0,1,.3-.61,2.89,2.89,0,0,1,1.28-.26v-.06a.33.33,0,0,0-.16-.32.93.93,0,0,0-.51-.1,2.05,2.05,0,0,0-.69.18h0v-.5a4.05,4.05,0,0,1,.86-.11,1.52,1.52,0,0,1,.87.19.72.72,0,0,1,.27.62Zm-.63-.58v-.6a2.07,2.07,0,0,0-.77.16.38.38,0,0,0,0,.58.52.52,0,0,0,.34.08A.7.7,0,0,0,75.34,113.43Z"/><path class="cls-1" d="M85.48,113.26l-.7,1.52h-.42l.39-1.52Z"/><path class="cls-1" d="M94.22,114H92.54v-.46H93v-2.17h-.5v-.46h1.68v.46h-.5v2.17h.5Z"/><path class="cls-1" d="M100.08,114h-.65L98,111.75V114h-.62v-3.09h.81l1.22,2v-2h.63Z"/><path class="cls-1" d="M105.8,113.8a2.89,2.89,0,0,1-.62.23,2.25,2.25,0,0,1-.44,0,1.51,1.51,0,0,1-1.12-.42,1.92,1.92,0,0,1,0-2.36,1.49,1.49,0,0,1,1.11-.43,2.37,2.37,0,0,1,1.06.26v.63h-.07a1.45,1.45,0,0,0-.91-.4.77.77,0,0,0-.65.29,1.26,1.26,0,0,0-.24.83,1.28,1.28,0,0,0,.24.83.81.81,0,0,0,.65.29,1.25,1.25,0,0,0,.42-.08,1.91,1.91,0,0,0,.5-.33h.06Z"/><path class="cls-1" d="M109.61,114h-.7v-.75h.7Z"/><path class="cls-2" d="M36.09,14.05h0A4.63,4.63,0,0,0,35,17a4.46,4.46,0,0,0,4.47,4.6l16.09.05a4.65,4.65,0,0,1,0,9.3l-23.32.09h-.32a4.65,4.65,0,1,0,0,9.3l28.29-.09"/><path class="cls-2" d="M93.37,14.05h0a4.63,4.63,0,0,1,1.09,3A4.46,4.46,0,0,1,90,21.64l-16.09.05a4.65,4.65,0,0,0,0,9.3l23.32.09h.32a4.65,4.65,0,0,1,0,9.3l-28.29-.09"/><path class="cls-2" d="M60.25,54.33s-21.92-13.18-27.08,0"/><path class="cls-2" d="M60.25,58.51S39,70.73,33.17,58.51"/><path class="cls-2" d="M69.21,54.33s21.92-13.18,27.08,0"/><path class="cls-2" d="M69.21,58.51s21.23,12.22,27.08,0"/><path class="cls-2" d="M69.25,1A37.06,37.06,0,0,1,83.83,5.93"/><path class="cls-2" d="M60.21,1A37.06,37.06,0,0,0,45.63,5.93"/><path class="cls-2" d="M69.25,75.63A37.06,37.06,0,0,0,83.83,70.7"/><path class="cls-2" d="M60.21,75.63A37.06,37.06,0,0,1,45.63,70.7"/></g></g></svg>
